<svg width="13" height="13" viewBox="0 0 13 13" fill="none" xmlns="http://www.w3.org/2000/svg">
<path d="M6.5 0C2.91576 0 0 2.91576 0 6.5C0 10.0842 2.91576 13 6.5 13C10.0842 13 13 10.0842 13 6.5C13 2.91576 10.0842 0 6.5 0ZM9.34375 7.04163H7.04163V9.34375C7.04163 9.64278 6.79903 9.88538 6.5 9.88538C6.20097 9.88538 5.95837 9.64278 5.95837 9.34375V7.04163H3.65625C3.35722 7.04163 3.11462 6.79903 3.11462 6.5C3.11462 6.20097 3.35722 5.95837 3.65625 5.95837H5.95837V3.65625C5.95837 3.35722 6.20097 3.11462 6.5 3.11462C6.79903 3.11462 7.04163 3.35722 7.04163 3.65625V5.95837H9.34375C9.64278 5.95837 9.88538 6.20097 9.88538 6.5C9.88538 6.79903 9.64278 7.04163 9.34375 7.04163Z" fill="white"/>
</svg>
