<svg width="49" height="49" viewBox="0 0 49 49" fill="none" xmlns="http://www.w3.org/2000/svg">
<g filter="url(#filter0_d)">
<path d="M24.5 3C13.1958 3 4 12.1958 4 23.5C4 34.8042 13.1958 44 24.5 44C35.8042 44 45 34.8042 45 23.5C45 12.1958 35.8042 3 24.5 3ZM33.4688 25.2082H26.2082V32.4688C26.2082 33.4119 25.4431 34.177 24.5 34.177C23.5569 34.177 22.7918 33.4119 22.7918 32.4688V25.2082H15.5312C14.5881 25.2082 13.823 24.4431 13.823 23.5C13.823 22.5569 14.5881 21.7918 15.5312 21.7918H22.7918V14.5312C22.7918 13.5881 23.5569 12.823 24.5 12.823C25.4431 12.823 26.2082 13.5881 26.2082 14.5312V21.7918H33.4688C34.4119 21.7918 35.177 22.5569 35.177 23.5C35.177 24.4431 34.4119 25.2082 33.4688 25.2082Z" fill="#0075FF"/>
</g>
<defs>
<filter id="filter0_d" x="0" y="0" width="49" height="49" filterUnits="userSpaceOnUse" color-interpolation-filters="sRGB">
<feFlood flood-opacity="0" result="BackgroundImageFix"/>
<feColorMatrix in="SourceAlpha" type="matrix" values="0 0 0 0 0 0 0 0 0 0 0 0 0 0 0 0 0 0 127 0"/>
<feOffset dy="1"/>
<feGaussianBlur stdDeviation="2"/>
<feColorMatrix type="matrix" values="0 0 0 0 0 0 0 0 0 0 0 0 0 0 0 0 0 0 0.25 0"/>
<feBlend mode="normal" in2="BackgroundImageFix" result="effect1_dropShadow"/>
<feBlend mode="normal" in="SourceGraphic" in2="effect1_dropShadow" result="shape"/>
</filter>
</defs>
</svg>
