<svg width="11" height="11" viewBox="0 0 11 11" fill="none" xmlns="http://www.w3.org/2000/svg">
<path fill-rule="evenodd" clip-rule="evenodd" d="M0.541667 0H4.33333C4.65833 0 4.875 0.216667 4.875 0.541667V4.33333C4.875 4.65833 4.65833 4.875 4.33333 4.875H0.541667C0.216667 4.875 0 4.65833 0 4.33333V0.541667C0 0.216667 0.216667 0 0.541667 0ZM1.08333 3.79167H3.79167V1.08333H1.08333V3.79167ZM10.2917 0H6.5C6.175 0 5.95833 0.216667 5.95833 0.541667V4.33333C5.95833 4.65833 6.175 4.875 6.5 4.875H10.2917C10.6167 4.875 10.8333 4.65833 10.8333 4.33333V0.541667C10.8333 0.216667 10.6167 0 10.2917 0ZM7.04167 3.79167H9.75V1.08333H7.04167V3.79167ZM10.2917 5.95833H6.5C6.175 5.95833 5.95833 6.175 5.95833 6.5V10.2917C5.95833 10.6167 6.175 10.8333 6.5 10.8333H10.2917C10.6167 10.8333 10.8333 10.6167 10.8333 10.2917V6.5C10.8333 6.175 10.6167 5.95833 10.2917 5.95833ZM7.04167 9.75H9.75V7.04167H7.04167V9.75ZM4.33333 5.95833H0.541667C0.216667 5.95833 0 6.175 0 6.5V10.2917C0 10.6167 0.216667 10.8333 0.541667 10.8333H4.33333C4.65833 10.8333 4.875 10.6167 4.875 10.2917V6.5C4.875 6.175 4.65833 5.95833 4.33333 5.95833ZM1.08333 9.75H3.79167V7.04167H1.08333V9.75Z" fill="#121F3E" fill-opacity="0.5"/>
</svg>
