<svg width="61" height="48" viewBox="0 0 61 48" fill="none" xmlns="http://www.w3.org/2000/svg">
<path d="M0 1.84615C0 0.826552 0.826552 0 1.84615 0H2.95385C3.97345 0 4.8 0.826552 4.8 1.84615V45.6C4.8 46.9255 3.72548 48 2.4 48C1.07452 48 0 46.9255 0 45.6V1.84615Z" fill="#F3F3F3"/>
<path d="M13.2002 1.84615C13.2002 0.826552 14.0268 0 15.0464 0H16.154C17.1736 0 18.0002 0.826552 18.0002 1.84615V45.6C18.0002 46.9255 16.9257 48 15.6002 48C14.2747 48 13.2002 46.9255 13.2002 45.6V1.84615Z" fill="#F3F3F3"/>
<path d="M28.7998 1.84615C28.7998 0.826552 29.6264 0 30.646 0H31.7536C32.7732 0 33.5998 0.826552 33.5998 1.84615V45.6C33.5998 46.9255 32.5253 48 31.1998 48C29.8743 48 28.7998 46.9255 28.7998 45.6V1.84615Z" fill="#F3F3F3"/>
<path d="M42.7998 1.84615C42.7998 0.826552 43.6264 0 44.646 0H45.7536C46.7732 0 47.5998 0.826552 47.5998 1.84615V45.6C47.5998 46.9255 46.5253 48 45.1998 48C43.8743 48 42.7998 46.9255 42.7998 45.6V1.84615Z" fill="#F3F3F3"/>
<path d="M56 1.84615C56 0.826552 56.8264 0 57.8464 0H58.9536C59.9736 0 60.8 0.826552 60.8 1.84615V45.6C60.8 46.9255 59.7256 48 58.4 48C57.0744 48 56 46.9255 56 45.6V1.84615Z" fill="#F3F3F3"/>
<path d="M0 31.2H4.8V45.6C4.8 46.9255 3.72548 48 2.4 48C1.07452 48 0 46.9255 0 45.6V31.2Z" fill="#00CFE8"/>
<path d="M13.2002 10.4H18.0002V45.6C18.0002 46.9255 16.9257 48 15.6002 48C14.2747 48 13.2002 46.9255 13.2002 45.6V10.4Z" fill="#00CFE8"/>
<path d="M28.7998 24.8H33.5998V45.6C33.5998 46.9255 32.5253 48 31.1998 48C29.8743 48 28.7998 46.9255 28.7998 45.6V24.8Z" fill="#00CFE8"/>
<path d="M42.7998 33.6H47.5998V45.6C47.5998 46.9255 46.5253 48 45.1998 48C43.8743 48 42.7998 46.9255 42.7998 45.6V33.6Z" fill="#00CFE8"/>
<path d="M56 19.2H60.8V45.6C60.8 46.9255 59.7256 48 58.4 48C57.0744 48 56 46.9255 56 45.6V19.2Z" fill="#00CFE8"/>
</svg>
