<svg width="24" height="24" viewBox="0 0 24 24" fill="none" xmlns="http://www.w3.org/2000/svg">
<path d="M21.4286 4.78564H6.85714C5.71312 4.78564 4.78571 5.71306 4.78571 6.85708V21.4285C4.78571 22.5725 5.71312 23.4999 6.85714 23.4999H21.4286C22.5726 23.4999 23.5 22.5725 23.5 21.4285V6.85708C23.5 5.71306 22.5726 4.78564 21.4286 4.78564Z" fill="white" stroke="#EFEFEF"/>
<path d="M18 0.5H18H2.57139C1.42736 0.5 0.499954 1.42741 0.499954 2.57143V18C0.49992 18.971 1.16826 19.7869 2.07139 20.0108V6.85714V6.85654C2.07453 4.2151 4.21505 2.07457 6.85649 2.07143H6.85709H20.0107C19.7869 1.16833 18.971 0.499965 18 0.5Z" fill="white" stroke="#EFEFEF"/>
</svg>
