<svg width="15" height="19" viewBox="0 0 15 19" fill="none" xmlns="http://www.w3.org/2000/svg">
<path d="M2.19789 17.403C2.24245 18.2996 2.97714 19 3.87659 19H10.6912C11.5906 19 12.3254 18.2997 12.3699 17.403L13.3514 6.11392H1.21631L2.19789 17.403ZM8.96469 8.91524H10.0852V15.0781H8.96469V8.91524ZM6.72363 8.91524H7.84416V15.0781H6.72363V8.91524ZM4.48257 8.91524H5.6031V15.0781H4.48257V8.91524Z" fill="#EA5455"/>
<path d="M10.0848 2.80132V1.68079C10.0848 0.754041 9.33079 0 8.40396 0H6.16291C5.23615 0 4.48211 0.754041 4.48211 1.68079V2.80132H0V5.04238H14.5669V2.80132H10.0848ZM5.60264 2.80132V1.68079C5.60264 1.37186 5.85401 1.12053 6.16291 1.12053H8.40396C8.71293 1.12053 8.96423 1.37186 8.96423 1.68079V2.80132H5.60264Z" fill="#EA5455"/>
</svg>
