<svg width="19" height="19" viewBox="0 0 19 19" fill="none" xmlns="http://www.w3.org/2000/svg">
<g clip-path="url(#clip0)">
<path d="M16.0313 5.9375H14.25V7.12501H15.4375V17.8125H3.56251V7.12501H4.75003V5.9375H2.96876C2.64056 5.9375 2.375 6.20306 2.375 6.53126V18.4062C2.375 18.7344 2.64056 19 2.96876 19H16.0313C16.3595 19 16.625 18.7344 16.625 18.4062V6.53126C16.625 6.20306 16.3595 5.9375 16.0313 5.9375Z" fill="white"/>
<path d="M8.90625 2.27295V10.6875H10.0938V2.27295L12.6427 4.8219L13.4823 3.9823L9.5 0L5.5177 3.9823L6.3573 4.8219L8.90625 2.27295Z" fill="white"/>
</g>
<defs>
<clipPath id="clip0">
<path d="M0 4C0 1.79086 1.79086 0 4 0H15C17.2091 0 19 1.79086 19 4V15C19 17.2091 17.2091 19 15 19H4C1.79086 19 0 17.2091 0 15V4Z" fill="white"/>
</clipPath>
</defs>
</svg>
