<svg width="12" height="13" viewBox="0 0 12 13" fill="none" xmlns="http://www.w3.org/2000/svg">
<path fill-rule="evenodd" clip-rule="evenodd" d="M11.76 4.26447L6.36 0.132803C6.12 -0.0442678 5.82 -0.0442678 5.64 0.132803L0.24 4.26447C0.06 4.38252 0 4.55959 0 4.73666V11.2293C0 12.2327 0.78 13 1.8 13H10.2C11.22 13 12 12.2327 12 11.2293V4.73666C12 4.55959 11.94 4.38252 11.76 4.26447ZM7.2 7.09761V11.8195H4.8V7.09761H7.2ZM10.2 11.8195C10.56 11.8195 10.8 11.5834 10.8 11.2293V5.03178L6 1.3723L1.2 5.03178V11.2293C1.2 11.5834 1.44 11.8195 1.8 11.8195H3.6V6.50738C3.6 6.15324 3.84 5.91714 4.2 5.91714H7.8C8.16 5.91714 8.4 6.15324 8.4 6.50738V11.8195H10.2Z" fill="#0075FF"/>
</svg>
