<svg width="13" height="13" viewBox="0 0 13 13" fill="none" xmlns="http://www.w3.org/2000/svg">
<path d="M12.2383 6.5C12.2383 3.3359 9.6641 0.761719 6.5 0.761719C5.31002 0.761719 4.17516 1.12254 3.21963 1.79225H3.95784C4.16817 1.79225 4.3387 1.96277 4.3387 2.17311C4.3387 2.38344 4.16817 2.55397 3.95784 2.55397H2.17308C1.96275 2.55397 1.79222 2.38344 1.79222 2.17311V0.38835C1.79222 0.178014 1.96275 0.00749023 2.17308 0.00749023C2.38342 0.00749023 2.55394 0.178014 2.55394 0.38835V1.33641C3.68197 0.469701 5.05502 0 6.5 0C8.23621 0 9.8685 0.676127 11.0962 1.90379C12.3239 3.1315 13 4.76379 13 6.5C13 7.64057 12.6986 8.76439 12.1283 9.74995C12.0578 9.87198 11.9298 9.94013 11.7983 9.94013C11.7336 9.94013 11.668 9.9236 11.6079 9.88886C11.4259 9.78352 11.3637 9.55053 11.469 9.36845C11.9723 8.4987 12.2383 7.50679 12.2383 6.5Z" fill="#121F3E" fill-opacity="0.5"/>
<path d="M0.871426 3.25004C0.976797 3.06797 1.20983 3.00581 1.39183 3.11115C1.57388 3.2165 1.63607 3.44949 1.53074 3.63156C1.0275 4.50127 0.761485 5.49315 0.761485 6.49999C0.761485 9.6641 3.33566 12.2383 6.49977 12.2383C7.68965 12.2383 8.8243 11.8773 9.77973 11.2077H9.04193C8.83159 11.2077 8.66107 11.0372 8.66107 10.8269C8.66107 10.6165 8.83159 10.446 9.04193 10.446H10.8267C11.037 10.446 11.2075 10.6165 11.2075 10.8269V12.6116C11.2075 12.822 11.037 12.9925 10.8267 12.9925C10.6163 12.9925 10.4458 12.822 10.4458 12.6116V11.6626C9.3178 12.5296 7.94493 13 6.49977 13C4.76356 13 3.13127 12.3239 1.90356 11.0962C0.675894 9.86849 -0.00023365 8.2362 -0.00023365 6.49999C-0.00023365 5.35937 0.301178 4.23555 0.871426 3.25004Z" fill="#121F3E" fill-opacity="0.5"/>
<path d="M3.11254 5.7348C3.08641 5.63723 3.1001 5.53328 3.1506 5.44581L3.91232 4.12646C3.96282 4.03899 4.04603 3.97516 4.14358 3.949C4.24115 3.92288 4.3451 3.93654 4.43257 3.98706L4.86614 4.23739C5.02034 4.12552 5.18449 4.03041 5.3574 3.95279V3.45312C5.3574 3.24279 5.52793 3.07227 5.73826 3.07227H7.2617C7.47204 3.07227 7.64256 3.24279 7.64256 3.45312V3.95276C7.81547 4.03041 7.9796 4.12549 8.13382 4.23737L8.56739 3.98704C8.65486 3.93651 8.75891 3.92283 8.85639 3.94898C8.95396 3.97511 9.03714 4.03894 9.08764 4.12643L9.84936 5.44578C9.89986 5.53325 9.91355 5.63723 9.88742 5.73478C9.86127 5.83235 9.79744 5.91553 9.70997 5.96604L9.2785 6.21512C9.28813 6.3097 9.29295 6.40486 9.29295 6.5C9.29295 6.59514 9.28813 6.6903 9.2785 6.78483L9.70997 7.03391C9.79744 7.08442 9.86127 7.16762 9.88742 7.26517C9.91355 7.36275 9.89986 7.4667 9.84936 7.55417L9.08764 8.87352C9.03714 8.96099 8.95394 9.02482 8.85639 9.05097C8.75878 9.07715 8.65483 9.06344 8.56739 9.01291L8.13382 8.76258C7.97962 8.87448 7.81547 8.96957 7.64256 9.04719V9.54688C7.64256 9.75721 7.47204 9.92773 7.2617 9.92773H5.73826C5.52793 9.92773 5.3574 9.75721 5.3574 9.54688V9.04724C5.18449 8.96962 5.02037 8.87451 4.86614 8.76263L4.43257 9.01296C4.34513 9.06346 4.2411 9.07715 4.14358 9.05102C4.046 9.02489 3.96282 8.96106 3.91232 8.87357L3.1506 7.55422C3.1001 7.46675 3.08641 7.36277 3.11254 7.26522C3.13869 7.16765 3.20252 7.08447 3.28999 7.03396L3.72146 6.78488C3.71183 6.6903 3.70701 6.59514 3.70701 6.5C3.70701 6.40486 3.71183 6.3097 3.72146 6.21517L3.28999 5.96609C3.20252 5.91556 3.13869 5.83238 3.11254 5.7348ZM4.50984 6.09131C4.48257 6.22494 4.46873 6.36246 4.46873 6.5C4.46873 6.63754 4.48257 6.77506 4.50984 6.90869C4.54264 7.06926 4.46903 7.2328 4.32713 7.31473L4.0007 7.50318L4.38156 8.16283L4.7107 7.97281C4.85269 7.89082 5.03129 7.90893 5.15397 8.0178C5.36167 8.20216 5.59874 8.3395 5.85859 8.42603C6.01418 8.47783 6.11915 8.62339 6.11915 8.78739V9.16602H6.88087V8.78739C6.88087 8.62342 6.98583 8.47783 7.14143 8.42603C7.40127 8.3395 7.63835 8.20216 7.84604 8.0178C7.9687 7.9089 8.1473 7.89082 8.28931 7.97281L8.61845 8.16283L8.99931 7.50318L8.67289 7.31473C8.53098 7.2328 8.45737 7.06926 8.49018 6.90869C8.51739 6.77506 8.53123 6.63754 8.53123 6.5C8.53123 6.36246 8.51739 6.22494 8.49013 6.09131C8.45732 5.93074 8.53093 5.7672 8.67284 5.68527L8.99926 5.49682L8.6184 4.83717L8.28926 5.02719C8.14725 5.1092 7.96868 5.0911 7.84599 4.9822C7.63829 4.79784 7.40122 4.6605 7.14135 4.57397C6.98578 4.52215 6.88082 4.37658 6.88082 4.21261V3.83398H6.1191V4.21261C6.1191 4.37658 6.01413 4.52215 5.85856 4.57397C5.59869 4.6605 5.36162 4.79784 5.15392 4.9822C5.03126 5.0911 4.85266 5.10918 4.71065 5.02719L4.38151 4.83717L4.00065 5.49682L4.32708 5.68527C4.46903 5.7672 4.54264 5.93074 4.50984 6.09131Z" fill="#121F3E" fill-opacity="0.5"/>
<path d="M6.5 5.10352C7.27002 5.10352 7.89648 5.72998 7.89648 6.5C7.89648 7.27002 7.27002 7.89648 6.5 7.89648C5.72998 7.89648 5.10352 7.27002 5.10352 6.5C5.10352 5.72998 5.72998 5.10352 6.5 5.10352ZM6.5 7.13477C6.85001 7.13477 7.13477 6.85001 7.13477 6.5C7.13477 6.14999 6.85001 5.86523 6.5 5.86523C6.14999 5.86523 5.86523 6.14999 5.86523 6.5C5.86523 6.85001 6.14999 7.13477 6.5 7.13477Z" fill="#121F3E" fill-opacity="0.5"/>
</svg>
