<svg width="293" height="293" viewBox="0 0 293 293" fill="none" xmlns="http://www.w3.org/2000/svg">
<path d="M146.5 0C65.715 0 0 65.7213 0 146.5C0 227.279 65.715 293 146.5 293C227.285 293 293 227.279 293 146.5C293 65.7213 227.285 0 146.5 0ZM204.74 151.633L119.282 206.57C118.28 207.22 117.124 207.542 115.979 207.542C114.978 207.542 113.964 207.291 113.059 206.797C111.091 205.724 109.875 203.673 109.875 201.438V91.5625C109.875 89.3272 111.091 87.2762 113.059 86.2032C114.99 85.1423 117.41 85.2075 119.282 86.4299L204.74 141.367C206.481 142.488 207.542 144.426 207.542 146.5C207.542 148.574 206.481 150.512 204.74 151.633Z" fill="white"/>
</svg>
