<svg width="70" height="45" viewBox="0 0 70 45" fill="none" xmlns="http://www.w3.org/2000/svg">
<g filter="url(#filter0_d)">
<path d="M66 2.58333V18.0833C66 19.6333 64.9667 20.6667 63.4167 20.6667C61.8667 20.6667 60.8333 19.6333 60.8333 18.0833V8.78333L40.6833 28.9333C39.65 29.9667 38.1 29.9667 37.0667 28.9333L25.9583 17.825L8.39167 35.3917C7.875 35.9083 7.35833 36.1667 6.58333 36.1667C5.80833 36.1667 5.29167 35.9083 4.775 35.3917C3.74167 34.3583 3.74167 32.8083 4.775 31.775L24.15 12.4C25.1833 11.3667 26.7333 11.3667 27.7667 12.4L38.875 23.5083L57.2167 5.16667H47.9167C46.3667 5.16667 45.3333 4.13333 45.3333 2.58333C45.3333 1.03333 46.3667 0 47.9167 0H63.4167C63.675 0 64.1917 -2.50215e-07 64.45 0.258333C64.9667 0.516667 65.4833 1.03333 65.7417 1.55C66 1.80833 66 2.325 66 2.58333Z" fill="#EA5455"/>
<mask id="mask0" mask-type="alpha" maskUnits="userSpaceOnUse" x="4" y="0" width="62" height="37">
<path d="M66 2.58333V18.0833C66 19.6333 64.9667 20.6667 63.4167 20.6667C61.8667 20.6667 60.8333 19.6333 60.8333 18.0833V8.78333L40.6833 28.9333C39.65 29.9667 38.1 29.9667 37.0667 28.9333L25.9583 17.825L8.39167 35.3917C7.875 35.9083 7.35833 36.1667 6.58333 36.1667C5.80833 36.1667 5.29167 35.9083 4.775 35.3917C3.74167 34.3583 3.74167 32.8083 4.775 31.775L24.15 12.4C25.1833 11.3667 26.7333 11.3667 27.7667 12.4L38.875 23.5083L57.2167 5.16667H47.9167C46.3667 5.16667 45.3333 4.13333 45.3333 2.58333C45.3333 1.03333 46.3667 0 47.9167 0H63.4167C63.675 0 64.1917 -2.50215e-07 64.45 0.258333C64.9667 0.516667 65.4833 1.03333 65.7417 1.55C66 1.80833 66 2.325 66 2.58333Z" fill="white"/>
</mask>
<g mask="url(#mask0)">
</g>
</g>
<defs>
<filter id="filter0_d" x="0" y="0" width="70" height="44.1667" filterUnits="userSpaceOnUse" color-interpolation-filters="sRGB">
<feFlood flood-opacity="0" result="BackgroundImageFix"/>
<feColorMatrix in="SourceAlpha" type="matrix" values="0 0 0 0 0 0 0 0 0 0 0 0 0 0 0 0 0 0 127 0"/>
<feOffset dy="4"/>
<feGaussianBlur stdDeviation="2"/>
<feColorMatrix type="matrix" values="0 0 0 0 0 0 0 0 0 0 0 0 0 0 0 0 0 0 0.25 0"/>
<feBlend mode="normal" in2="BackgroundImageFix" result="effect1_dropShadow"/>
<feBlend mode="normal" in="SourceGraphic" in2="effect1_dropShadow" result="shape"/>
</filter>
</defs>
</svg>
