<svg width="23" height="22" viewBox="0 0 23 22" fill="none" xmlns="http://www.w3.org/2000/svg">
<path d="M22.6844 20.0333L16.293 14.0101C17.531 12.569 18.2765 10.7378 18.2765 8.74328C18.2765 4.12067 14.2852 0.359375 9.38002 0.359375C4.47482 0.359375 0.483643 4.12063 0.483643 8.74324C0.483643 13.3659 4.47487 17.1271 9.38007 17.1271C11.4965 17.1271 13.4396 16.4247 14.9689 15.258L21.3602 21.2811C21.5429 21.4532 21.7826 21.5397 22.0223 21.5397C22.2621 21.5397 22.5018 21.4532 22.6844 21.2811C23.0506 20.9361 23.0506 20.3783 22.6844 20.0333ZM9.38007 15.3621C5.50684 15.3621 2.35659 12.3933 2.35659 8.74324C2.35659 5.09314 5.50684 2.12438 9.38007 2.12438C13.2533 2.12438 16.4036 5.09314 16.4036 8.74324C16.4036 12.3933 13.2533 15.3621 9.38007 15.3621Z" fill="white"/>
</svg>
