<svg width="14" height="12" viewBox="0 0 14 12" fill="none" xmlns="http://www.w3.org/2000/svg">
<path d="M10.8418 3.16269H10.582V0.738281C10.5818 0.542548 10.5039 0.354898 10.3655 0.216493C10.2271 0.0780889 10.0395 0.000231569 9.84375 0H9.29589C9.29327 0 9.29064 0.000656247 9.28802 0.000765622C9.27532 0.00129813 9.26271 0.00313064 9.25039 0.00623439C9.24617 0.00729431 9.24201 0.00857205 9.23792 0.0100625C9.22658 0.0136748 9.2156 0.0183246 9.20511 0.0239531C9.20281 0.0252656 9.20019 0.0257031 9.198 0.027125C6.9335 1.38512 4.34268 2.10257 1.7022 2.10284H1.28516C0.944436 2.10325 0.617787 2.23878 0.376861 2.4797C0.135935 2.72063 0.000405241 3.04728 0 3.388L0 5.2792C0.000405296 5.61991 0.135939 5.94655 0.376868 6.18746C0.617797 6.42837 0.944446 6.56387 1.28516 6.56425H1.58594L0.855422 10.8182C0.839924 10.9084 0.844328 11.001 0.868326 11.0894C0.892325 11.1778 0.935339 11.2599 0.994361 11.3299C1.05338 11.3999 1.12699 11.4562 1.21003 11.4948C1.29308 11.5335 1.38355 11.5535 1.47514 11.5535H2.47428C2.62268 11.5538 2.76639 11.5015 2.87986 11.4058C2.99334 11.3102 3.06925 11.1774 3.09411 11.0311L3.3238 9.69675H3.71755C3.86598 9.69707 4.00971 9.64475 4.1232 9.54909C4.23669 9.45342 4.31258 9.32061 4.33737 9.17427L4.51883 8.11858C4.53434 8.02824 4.52992 7.9356 4.50586 7.84716C4.48181 7.75871 4.4387 7.67659 4.37957 7.60656C4.32043 7.53653 4.2467 7.48027 4.16354 7.44173C4.08037 7.4032 3.98978 7.38331 3.89812 7.38347H3.72072L3.83414 6.72317C5.72739 7.00257 7.54706 7.65215 9.18925 8.63483L9.19373 8.63734L9.19844 8.64008H9.19975C9.21385 8.6484 9.22896 8.65487 9.2447 8.65933L9.24722 8.66009C9.26338 8.66471 9.28007 8.66717 9.29688 8.66742H9.84375C10.0395 8.66719 10.2271 8.58933 10.3655 8.45093C10.5039 8.31252 10.5818 8.12487 10.582 7.92914V5.50561H10.8418C11.0665 5.50535 11.282 5.41596 11.4409 5.25705C11.5998 5.09814 11.6892 4.88269 11.6895 4.65795V4.01002C11.6891 3.78534 11.5997 3.56997 11.4408 3.41113C11.2819 3.25229 11.0665 3.16295 10.8418 3.16269ZM0.382812 5.2792V3.388C0.383073 3.14876 0.478225 2.9194 0.647391 2.75023C0.816556 2.58107 1.04592 2.48592 1.28516 2.48566H1.7022C4.29829 2.48555 6.84966 1.80981 9.10547 0.524891V8.14231C7.44174 7.19504 5.61162 6.57597 3.71448 6.3187C3.71284 6.3187 3.71131 6.31761 3.70967 6.31728C3.70803 6.31695 3.70409 6.31728 3.70136 6.31728C3.03876 6.22733 2.37088 6.18195 1.7022 6.18144H1.28516C1.04594 6.18118 0.816592 6.08604 0.647429 5.9169C0.478267 5.74776 0.383102 5.51842 0.382812 5.2792ZM3.89812 7.76628C3.93396 7.76627 3.96936 7.77409 4.00186 7.7892C4.03436 7.8043 4.06316 7.82632 4.08626 7.85372C4.10935 7.88112 4.12618 7.91324 4.13557 7.94782C4.14496 7.9824 4.14668 8.01862 4.14061 8.05394L3.95938 9.10962C3.94967 9.1669 3.91996 9.21887 3.87554 9.2563C3.83112 9.29373 3.77487 9.31419 3.71678 9.31405H3.38866L3.5875 8.15675L3.65455 7.76628H3.89812ZM2.71688 10.9663C2.70713 11.0235 2.67741 11.0755 2.633 11.1129C2.58859 11.1503 2.53236 11.1708 2.47428 11.1707H1.47514C1.4393 11.1707 1.4039 11.1628 1.3714 11.1477C1.3389 11.1326 1.3101 11.1106 1.28701 11.0832C1.26391 11.0558 1.24708 11.0236 1.23769 10.9891C1.22831 10.9545 1.22659 10.9182 1.23266 10.8829L1.97378 6.56895C2.46879 6.57822 2.963 6.61268 3.4545 6.6722L2.71688 10.9663ZM10.1992 7.92969C10.1991 8.02393 10.1616 8.11428 10.095 8.18091C10.0283 8.24755 9.93799 8.28504 9.84375 8.28516H9.48828V0.382812H9.84375C9.93799 0.382928 10.0283 0.420416 10.095 0.487055C10.1616 0.553693 10.1991 0.644041 10.1992 0.738281V7.92969ZM11.3066 4.65795C11.3065 4.78119 11.2575 4.89934 11.1703 4.98649C11.0832 5.07363 10.965 5.12265 10.8418 5.1228H10.582V3.5455H10.8418C10.965 3.54562 11.0832 3.59463 11.1704 3.68178C11.2575 3.76893 11.3065 3.8871 11.3066 4.01034V4.65795Z" fill="#121F3E" fill-opacity="0.5"/>
<path d="M5.05805 6.05893C5.08603 6.06515 5.11505 6.06501 5.14297 6.05852C5.17088 6.05202 5.19699 6.03934 5.21935 6.02141C5.24171 6.00348 5.25976 5.98076 5.27217 5.95491C5.28457 5.92907 5.29101 5.90078 5.29102 5.87211V2.79496C5.29101 2.76629 5.28457 2.738 5.27217 2.71215C5.25976 2.68631 5.24171 2.66359 5.21935 2.64566C5.19699 2.62772 5.17088 2.61504 5.14297 2.60855C5.11505 2.60206 5.08603 2.60192 5.05805 2.60814C3.95626 2.85339 2.83095 2.97736 1.7022 2.97783H1.28516C1.17642 2.97798 1.07218 3.02124 0.995292 3.09812C0.918404 3.17501 0.875145 3.27925 0.875 3.38799V5.27919C0.875145 5.38793 0.918404 5.49217 0.995292 5.56906C1.07218 5.64594 1.17642 5.6892 1.28516 5.68935H1.7022C2.83095 5.6898 3.95626 5.81373 5.05805 6.05893ZM1.25781 5.27919V3.38799C1.2579 3.38076 1.26081 3.37386 1.26592 3.36875C1.27103 3.36364 1.27793 3.36073 1.28516 3.36064H1.7022C2.77928 3.36009 3.85349 3.24979 4.9082 3.03143V5.63455C3.85346 5.41657 2.77924 5.30663 1.7022 5.30643H1.28516C1.27795 5.30634 1.27106 5.30345 1.26595 5.29836C1.26085 5.29328 1.25793 5.2864 1.25781 5.27919Z" fill="#121F3E" fill-opacity="0.5"/>
<path d="M13.8086 4.14258H12.7285C12.6778 4.14258 12.6291 4.16274 12.5932 4.19864C12.5573 4.23454 12.5371 4.28322 12.5371 4.33398C12.5371 4.38475 12.5573 4.43343 12.5932 4.46933C12.6291 4.50522 12.6778 4.52539 12.7285 4.52539H13.8086C13.8594 4.52539 13.908 4.50522 13.9439 4.46933C13.9798 4.43343 14 4.38475 14 4.33398C14 4.28322 13.9798 4.23454 13.9439 4.19864C13.908 4.16274 13.8594 4.14258 13.8086 4.14258Z" fill="#121F3E" fill-opacity="0.5"/>
<path d="M12.2061 3.26365C12.2312 3.2637 12.2561 3.25878 12.2793 3.24916C12.3025 3.23955 12.3236 3.22544 12.3414 3.20765L13.105 2.44388C13.1228 2.42612 13.1369 2.40502 13.1465 2.38181C13.1561 2.35859 13.1611 2.33371 13.1611 2.30859C13.1611 2.28346 13.1561 2.25858 13.1465 2.23536C13.1369 2.21215 13.1228 2.19106 13.105 2.17329C13.0873 2.15552 13.0662 2.14143 13.0429 2.13181C13.0197 2.1222 12.9949 2.11725 12.9697 2.11725C12.9446 2.11725 12.9197 2.1222 12.8965 2.13181C12.8733 2.14143 12.8522 2.15552 12.8344 2.17329L12.0707 2.93695C12.0439 2.96372 12.0257 2.99783 12.0183 3.03495C12.0109 3.07208 12.0147 3.11056 12.0292 3.14553C12.0437 3.1805 12.0683 3.21038 12.0997 3.23141C12.1312 3.25243 12.1682 3.26365 12.2061 3.26365Z" fill="#121F3E" fill-opacity="0.5"/>
<path d="M12.3414 5.46012C12.3055 5.42422 12.2568 5.40405 12.2061 5.40405C12.1553 5.40405 12.1066 5.42422 12.0707 5.46012C12.0348 5.49601 12.0146 5.5447 12.0146 5.59547C12.0146 5.64624 12.0348 5.69492 12.0707 5.73082L12.8345 6.4947C12.8521 6.51297 12.8733 6.52755 12.8966 6.53758C12.92 6.5476 12.9451 6.55288 12.9705 6.55309C12.9959 6.55331 13.0211 6.54846 13.0446 6.53883C13.0682 6.5292 13.0895 6.51499 13.1075 6.49701C13.1255 6.47904 13.1397 6.45766 13.1493 6.43414C13.1589 6.41061 13.1638 6.38541 13.1635 6.35999C13.1633 6.33458 13.158 6.30946 13.148 6.28611C13.1379 6.26276 13.1234 6.24164 13.1051 6.22399L12.3414 5.46012Z" fill="#121F3E" fill-opacity="0.5"/>
</svg>
