<svg width="19" height="18" viewBox="0 0 19 18" fill="none" xmlns="http://www.w3.org/2000/svg">
<path fill-rule="evenodd" clip-rule="evenodd" d="M17.6381 6.00818C17.9701 6.09134 18.2191 6.25765 18.3021 6.59028C18.3861 6.83976 18.3021 7.17239 18.0531 7.33871L14.2331 11.0808L15.1471 16.4029C15.2301 16.7356 15.0641 17.0682 14.8141 17.2345C14.6481 17.3177 14.4821 17.4008 14.3161 17.4008H13.9011L9.16711 14.9061L4.43312 17.4008C4.10112 17.5672 3.76911 17.484 3.52011 17.3177C3.27011 17.1514 3.10412 16.8187 3.18712 16.4861L4.10112 11.164L0.281109 7.42187C0.0311094 7.25555 -0.0518906 6.92292 0.0311094 6.59028C0.198109 6.25765 0.447111 6.00818 0.77911 6.00818L6.01111 5.1766L8.42012 0.436583C8.66912 -0.145528 9.66511 -0.145528 9.91411 0.436583L12.3231 5.25975L17.6381 6.00818ZM12.4891 10.9977C12.4891 10.7482 12.5721 10.4987 12.7381 10.2492L15.7281 7.33871L11.6581 6.7566C11.3261 6.7566 11.0771 6.59028 10.9941 6.34081L9.16711 2.68185L7.34012 6.42397C7.17412 6.59028 6.92511 6.83976 6.67511 6.83976L2.60611 7.42187L5.59611 10.2492C5.76211 10.4987 5.8451 10.7482 5.8451 10.9977L5.09811 15.0724L8.75212 13.1598C9.00112 12.9935 9.25011 12.9935 9.49911 13.1598L13.1531 15.0724L12.4891 10.9977Z" fill="black"/>
<mask id="mask0" mask-type="alpha" maskUnits="userSpaceOnUse" x="0" y="0" width="19" height="18">
<path fill-rule="evenodd" clip-rule="evenodd" d="M17.6381 6.00818C17.9701 6.09134 18.2191 6.25765 18.3021 6.59028C18.3861 6.83976 18.3021 7.17239 18.0531 7.33871L14.2331 11.0808L15.1471 16.4029C15.2301 16.7356 15.0641 17.0682 14.8141 17.2345C14.6481 17.3177 14.4821 17.4008 14.3161 17.4008H13.9011L9.16711 14.9061L4.43312 17.4008C4.10112 17.5672 3.76911 17.484 3.52011 17.3177C3.27011 17.1514 3.10412 16.8187 3.18712 16.4861L4.10112 11.164L0.281109 7.42187C0.0311094 7.25555 -0.0518906 6.92292 0.0311094 6.59028C0.198109 6.25765 0.447111 6.00818 0.77911 6.00818L6.01111 5.1766L8.42012 0.436583C8.66912 -0.145528 9.66511 -0.145528 9.91411 0.436583L12.3231 5.25975L17.6381 6.00818ZM12.4891 10.9977C12.4891 10.7482 12.5721 10.4987 12.7381 10.2492L15.7281 7.33871L11.6581 6.7566C11.3261 6.7566 11.0771 6.59028 10.9941 6.34081L9.16711 2.68185L7.34012 6.42397C7.17412 6.59028 6.92511 6.83976 6.67511 6.83976L2.60611 7.42187L5.59611 10.2492C5.76211 10.4987 5.8451 10.7482 5.8451 10.9977L5.09811 15.0724L8.75212 13.1598C9.00112 12.9935 9.25011 12.9935 9.49911 13.1598L13.1531 15.0724L12.4891 10.9977Z" fill="white"/>
</mask>
<g mask="url(#mask0)">
<path d="M19.167 -0.832886H-0.833008V19.1574H19.167V-0.832886Z" fill="#FF9F43"/>
</g>
</svg>
