<svg width="11" height="6" viewBox="0 0 11 6" fill="none" xmlns="http://www.w3.org/2000/svg">
<path d="M5.03277 0C3.10964 0 1.36565 1.05216 0.0787577 2.76115C-0.0262526 2.90117 -0.0262526 3.09677 0.0787577 3.23679C1.36565 4.94784 3.10964 6 5.03277 6C6.9559 6 8.6999 4.94784 9.98679 3.23885C10.0918 3.09883 10.0918 2.90323 9.98679 2.76321C8.6999 1.05216 6.9559 0 5.03277 0ZM5.17073 5.11256C3.89413 5.19286 2.83991 4.1407 2.92021 2.86205C2.9861 1.80782 3.8406 0.953329 4.89482 0.88744C6.17141 0.807138 7.22564 1.8593 7.14533 3.13795C7.07739 4.19012 6.22289 5.04461 5.17073 5.11256ZM5.1069 4.13658C4.41918 4.17982 3.85089 3.61359 3.89619 2.92588C3.93119 2.35758 4.39242 1.89842 4.96071 1.86136C5.64842 1.81812 6.21671 2.38435 6.17141 3.07207C6.13435 3.64242 5.67313 4.10158 5.1069 4.13658Z" fill="white"/>
</svg>
