<svg width="73" height="73" viewBox="0 0 73 73" fill="none" xmlns="http://www.w3.org/2000/svg">
<circle cx="36.5" cy="36.5" r="36.5" fill="#00CFE8"/>
<path fill-rule="evenodd" clip-rule="evenodd" d="M22.55 23H33.4C34.33 23 34.95 23.62 34.95 24.55V35.4C34.95 36.33 34.33 36.95 33.4 36.95H22.55C21.62 36.95 21 36.33 21 35.4V24.55C21 23.62 21.62 23 22.55 23ZM24.1 33.85H31.85V26.1H24.1V33.85ZM50.45 23H39.6C38.67 23 38.05 23.62 38.05 24.55V35.4C38.05 36.33 38.67 36.95 39.6 36.95H50.45C51.38 36.95 52 36.33 52 35.4V24.55C52 23.62 51.38 23 50.45 23ZM41.15 33.85H48.9V26.1H41.15V33.85ZM50.45 40.05H39.6C38.67 40.05 38.05 40.67 38.05 41.6V52.45C38.05 53.38 38.67 54 39.6 54H50.45C51.38 54 52 53.38 52 52.45V41.6C52 40.67 51.38 40.05 50.45 40.05ZM41.15 50.9H48.9V43.15H41.15V50.9ZM33.4 40.05H22.55C21.62 40.05 21 40.67 21 41.6V52.45C21 53.38 21.62 54 22.55 54H33.4C34.33 54 34.95 53.38 34.95 52.45V41.6C34.95 40.67 34.33 40.05 33.4 40.05ZM24.1 50.9H31.85V43.15H24.1V50.9Z" fill="#D8F1EC"/>
<mask id="mask0" mask-type="alpha" maskUnits="userSpaceOnUse" x="21" y="23" width="31" height="31">
<path fill-rule="evenodd" clip-rule="evenodd" d="M22.55 23H33.4C34.33 23 34.95 23.62 34.95 24.55V35.4C34.95 36.33 34.33 36.95 33.4 36.95H22.55C21.62 36.95 21 36.33 21 35.4V24.55C21 23.62 21.62 23 22.55 23ZM24.1 33.85H31.85V26.1H24.1V33.85ZM50.45 23H39.6C38.67 23 38.05 23.62 38.05 24.55V35.4C38.05 36.33 38.67 36.95 39.6 36.95H50.45C51.38 36.95 52 36.33 52 35.4V24.55C52 23.62 51.38 23 50.45 23ZM41.15 33.85H48.9V26.1H41.15V33.85ZM50.45 40.05H39.6C38.67 40.05 38.05 40.67 38.05 41.6V52.45C38.05 53.38 38.67 54 39.6 54H50.45C51.38 54 52 53.38 52 52.45V41.6C52 40.67 51.38 40.05 50.45 40.05ZM41.15 50.9H48.9V43.15H41.15V50.9ZM33.4 40.05H22.55C21.62 40.05 21 40.67 21 41.6V52.45C21 53.38 21.62 54 22.55 54H33.4C34.33 54 34.95 53.38 34.95 52.45V41.6C34.95 40.67 34.33 40.05 33.4 40.05ZM24.1 50.9H31.85V43.15H24.1V50.9Z" fill="white"/>
</mask>
<g mask="url(#mask0)">
</g>
</svg>
