<svg width="19" height="19" viewBox="0 0 19 19" fill="none" xmlns="http://www.w3.org/2000/svg">
<path d="M19 2.48563C19 1.11283 17.8872 0 16.5144 0H2.48563C1.11283 0 0 1.11283 0 2.48563V16.5143C0 17.8872 1.11283 19 2.48563 19H16.5143C17.8872 19 19 17.8872 19 16.5144V2.48563ZM4.26489 15.5148C3.85322 15.6253 3.47649 15.2485 3.58691 14.8369L4.26959 12.2923L6.80936 14.8321L4.26489 15.5148ZM15.2333 6.26111L7.71666 13.7779L5.18853 11.2497L12.7052 3.73309C13.0617 3.37659 13.6395 3.37659 13.9961 3.73309L15.2333 4.97034C15.5897 5.32674 15.5897 5.90461 15.2333 6.26111Z" fill="#0075FF"/>
</svg>
